<svg width="27" height="18" viewBox="0 0 27 18" fill="none" xmlns="http://www.w3.org/2000/svg">
<path d="M21 12C24.3137 12 27 9.31371 27 6C27 2.68629 24.3137 0 21 0C17.6863 0 15 2.68629 15 6C15 9.31371 17.6863 12 21 12Z" fill="url(#paint0_linear)"/>
<path d="M21 10.106C23.2673 10.106 25.1053 8.26805 25.1053 6.00077C25.1053 3.7335 23.2673 1.89551 21 1.89551C18.7328 1.89551 16.8948 3.7335 16.8948 6.00077C16.8948 8.26805 18.7328 10.106 21 10.106Z" fill="white"/>
<path d="M0.550293 18H3.69971V12.1772H7.3374C10.9019 12.1772 13.3311 9.80908 13.3311 6.29346V6.26904C13.3311 2.74121 10.9019 0.385254 7.3374 0.385254H0.550293V18ZM6.55615 2.96094C8.81445 2.96094 10.1328 4.16943 10.1328 6.28125V6.30566C10.1328 8.41748 8.81445 9.63818 6.55615 9.63818H3.69971V2.96094H6.55615Z" fill="black"/>
<defs>
<linearGradient id="paint0_linear" x1="26.3684" y1="1.89474" x2="17.2105" y2="10.7368" gradientUnits="userSpaceOnUse">
<stop stop-color="#66C8FF"/>
<stop offset="0.40625" stop-color="#D4FF9E"/>
<stop offset="0.666667" stop-color="#FFF495"/>
<stop offset="1" stop-color="#FFA4D5"/>
</linearGradient>
</defs>
</svg>
