<svg width="29" height="18" viewBox="0 0 29 18" fill="none" xmlns="http://www.w3.org/2000/svg">
<path d="M23 12C26.3137 12 29 9.31371 29 6C29 2.68629 26.3137 0 23 0C19.6863 0 17 2.68629 17 6C17 9.31371 19.6863 12 23 12Z" fill="url(#paint0_linear)"/>
<path d="M23 9C24.6569 9 26 7.65685 26 6C26 4.34315 24.6569 3 23 3C21.3431 3 20 4.34315 20 6C20 7.65685 21.3431 9 23 9Z" fill="white"/>
<path d="M4.65 8.55V3.2H7.7C8.15 3.2 8.58333 3.23333 9 3.3C9.41667 3.36667 9.78333 3.5 10.1 3.7C10.4167 3.88333 10.6667 4.15 10.85 4.5C11.05 4.85 11.15 5.30833 11.15 5.875C11.15 6.44167 11.05 6.9 10.85 7.25C10.6667 7.6 10.4167 7.875 10.1 8.075C9.78333 8.25833 9.41667 8.38333 9 8.45C8.58333 8.51667 8.15 8.55 7.7 8.55H4.65ZM0.725 0.149999V18H4.65V11.6H8.775C9.89167 11.6 10.8417 11.4417 11.625 11.125C12.4083 10.7917 13.0417 10.3583 13.525 9.825C14.025 9.29167 14.3833 8.68333 14.6 8C14.8333 7.3 14.95 6.59167 14.95 5.875C14.95 5.14167 14.8333 4.43333 14.6 3.75C14.3833 3.06667 14.025 2.45833 13.525 1.925C13.0417 1.39167 12.4083 0.966666 11.625 0.65C10.8417 0.316666 9.89167 0.149999 8.775 0.149999H0.725Z" fill="black"/>
<defs>
<linearGradient id="paint0_linear" x1="28.3684" y1="1.89474" x2="19.2105" y2="10.7368" gradientUnits="userSpaceOnUse">
<stop stop-color="#389EFD"/>
<stop offset="0.40625" stop-color="#D4FF9E"/>
<stop offset="0.666667" stop-color="#FFF495"/>
<stop offset="1" stop-color="#FFA4D5"/>
</linearGradient>
</defs>
</svg>

