<svg width="131" height="21" viewBox="0 0 131 21" fill="none" xmlns="http://www.w3.org/2000/svg">
<circle cx="121.5" cy="9.5" r="5.25" transform="rotate(-41.9772 121.5 9.5)" stroke="url(#paint0_linear)" stroke-width="2.5"/>
<path d="M13.275 9C13.275 5.35 10.85 3.5 6.825 3.5H0.7C0.55 3.5 0.4 3.65 0.4 3.8L0.575 12.15L0.4 20.7C0.4 20.85 0.55 21 0.7 21H3.3C3.45 21 3.6 20.85 3.6 20.7L3.5 14.65H6.825C10.775 14.65 13.275 12.65 13.275 9ZM10.3 9.05C10.3 11.375 8.9 12.3 7.05 12.3H3.45L3.55 5.85H6.95C9.075 5.85 10.3 6.875 10.3 9.05ZM25.9408 8.9C25.9408 11 24.4408 11.85 22.4908 11.85H18.4158L18.5158 5.85H22.4158C24.6408 5.85 25.9408 6.875 25.9408 8.9ZM25.6908 20.75C25.7908 20.9 25.9658 21 26.1408 21H29.1158C29.2408 21 29.3158 20.85 29.2658 20.75L24.8658 13.925C27.3908 13.25 28.9158 11.525 28.9158 8.85C28.9158 5.3 26.4158 3.5 22.2408 3.5H15.6658C15.5158 3.5 15.3658 3.65 15.3658 3.8L15.5408 12.15L15.3658 20.7C15.3658 20.85 15.5158 21 15.6658 21H18.2658C18.4158 21 18.5658 20.85 18.5658 20.7L18.4408 14.225H21.6158L23.7908 17.5L25.6908 20.75ZM35.9471 13.65L38.5471 5.65L41.1971 13.65H35.9471ZM46.4971 21C46.6471 21 46.7471 20.85 46.6971 20.725L40.8221 3.775C40.7721 3.625 40.5971 3.5 40.4221 3.5H36.9471C36.7721 3.5 36.5971 3.625 36.5471 3.775L30.5721 20.725C30.5221 20.85 30.6221 21 30.7721 21H33.2721C33.4471 21 33.6221 20.875 33.6721 20.725L35.1221 16.2H42.0221L43.5221 20.725C43.5721 20.875 43.7471 21 43.9221 21H46.4971ZM58.2254 20.75C58.3254 20.9 58.5254 21 58.7004 21H61.9004C62.0254 21 62.1004 20.85 62.0254 20.75L55.1004 10.575L60.7504 3.725C60.8254 3.625 60.7754 3.5 60.6504 3.5H57.6004C57.4254 3.5 57.2254 3.6 57.1254 3.75L51.3504 11.5L51.5004 3.8C51.5004 3.65 51.3504 3.5 51.2004 3.5H48.6004C48.4504 3.5 48.3004 3.65 48.3004 3.8L48.4754 12.15L48.3004 20.7C48.3004 20.85 48.4504 21 48.6004 21H51.2004C51.3504 21 51.5004 20.85 51.5004 20.7L51.4004 15.1L53.1004 13L56.4504 18L58.2254 20.75ZM78.0568 21C78.2068 21 78.3568 20.85 78.3568 20.7L78.1568 12.3L78.3568 3.8C78.3568 3.65 78.2068 3.5 78.0568 3.5H75.4318C75.2818 3.5 75.1318 3.65 75.1318 3.8L75.2568 10.45H66.7568L66.8818 3.8C66.8818 3.65 66.7318 3.5 66.5818 3.5H63.9568C63.8068 3.5 63.6568 3.65 63.6568 3.8L63.8568 12.3L63.6568 20.7C63.6568 20.85 63.8068 21 63.9568 21H66.5818C66.7318 21 66.8818 20.85 66.8818 20.7L66.7318 12.85H75.2818L75.1318 20.7C75.1318 20.85 75.2818 21 75.4318 21H78.0568ZM85.3367 13.65L87.9367 5.65L90.5867 13.65H85.3367ZM95.8867 21C96.0367 21 96.1367 20.85 96.0867 20.725L90.2117 3.775C90.1617 3.625 89.9867 3.5 89.8117 3.5H86.3367C86.1617 3.5 85.9867 3.625 85.9367 3.775L79.9617 20.725C79.9117 20.85 80.0117 21 80.1617 21H82.6617C82.8367 21 83.0117 20.875 83.0617 20.725L84.5117 16.2H91.4117L92.9117 20.725C92.9617 20.875 93.1367 21 93.3117 21H95.8867ZM108.265 8.9C108.265 11 106.765 11.85 104.815 11.85H100.74L100.84 5.85H104.74C106.965 5.85 108.265 6.875 108.265 8.9ZM108.015 20.75C108.115 20.9 108.29 21 108.465 21H111.44C111.565 21 111.64 20.85 111.59 20.75L107.19 13.925C109.715 13.25 111.24 11.525 111.24 8.85C111.24 5.3 108.74 3.5 104.565 3.5H97.99C97.84 3.5 97.69 3.65 97.69 3.8L97.865 12.15L97.69 20.7C97.69 20.85 97.84 21 97.99 21H100.59C100.74 21 100.89 20.85 100.89 20.7L100.765 14.225H103.94L106.115 17.5L108.015 20.75Z" fill="#1D1D1D"/>
<defs>
<linearGradient id="paint0_linear" x1="121.5" y1="3" x2="121.5" y2="16" gradientUnits="userSpaceOnUse">
<stop stop-color="#9FB4FF"/>
<stop offset="1" stop-color="#F5F8FF"/>
</linearGradient>
</defs>
</svg>
